<svg width="150" height="48" viewBox="0 0 150 48" fill="none" xmlns="http://www.w3.org/2000/svg">
<rect x="9" y="6" width="26" height="35" fill="url(#paint0_linear_255_1144)"/>
<path fill-rule="evenodd" clip-rule="evenodd" d="M1.15855 1.68797C0.465607 1.5771 -0.123025 2.19581 0.0222092 2.88237L5.22089 27.4579L0.943309 38.3463C0.29064 40.0077 1.22416 41.8679 2.94621 42.3376L20.8446 47.219C21.416 47.3748 22.0207 47.358 22.5826 47.1707L38.2695 41.9417C39.1812 41.6378 39.8922 40.9155 40.1816 39.9991L42.4656 32.7664C42.6325 32.2378 42.6497 31.6732 42.5153 31.1354L39.9562 20.899C39.8032 20.2872 39.847 19.6428 40.0812 19.0573L42.3475 13.3915C42.5898 12.7857 42.628 12.1174 42.4563 11.4879L40.2673 3.46164C39.9386 2.25619 38.8971 1.38072 37.6531 1.26409L24.3092 0.0130975C23.9207 -0.0233192 23.5289 0.0163824 23.1556 0.129978L12.884 3.25615C12.4477 3.38893 11.9868 3.4205 11.5365 3.34845L1.15855 1.68797ZM17.2409 30.5379C17.3209 30.5379 17.4276 30.5246 17.5609 30.4979C17.6142 30.4446 17.6809 30.4046 17.7609 30.3779C17.8409 30.3513 17.9209 30.3113 18.0009 30.2579C18.1876 30.1246 18.2809 29.9913 18.2809 29.8579C18.3342 29.5646 18.2676 29.2979 18.0809 29.0579C17.8942 28.8179 17.6942 28.6979 17.4809 28.6979C17.3742 28.6979 17.2942 28.7113 17.2409 28.7379L16.8009 29.1379C16.6142 29.2713 16.5076 29.4313 16.4809 29.6179C16.4809 29.9379 16.5209 30.1779 16.6009 30.3379C16.6809 30.4713 16.8942 30.5379 17.2409 30.5379ZM18.8009 31.0979C18.7742 30.9913 18.6276 30.9113 18.3609 30.8579L18.0809 30.9779C17.9742 30.9779 17.8409 31.1379 17.6809 31.4579C17.6809 31.7246 17.8276 31.8579 18.1209 31.8579C18.4142 31.8579 18.6409 31.6846 18.8009 31.3379C18.8542 31.2846 18.8542 31.2046 18.8009 31.0979ZM25.1609 10.9379C25.0009 10.9646 24.8942 11.0046 24.8409 11.0579L24.6809 10.9779C24.6276 11.0046 24.5742 11.0179 24.5209 11.0179C24.4676 10.9913 24.3476 11.0046 24.1609 11.0579C24.1076 11.0579 24.0542 11.0713 24.0009 11.0979H23.8009C23.6142 11.2046 23.4409 11.2579 23.2809 11.2579C23.2276 11.2579 23.1342 11.2179 23.0009 11.1379C22.8676 11.0579 22.7742 10.9913 22.7209 10.9379C22.6142 10.8313 22.5476 10.7113 22.5209 10.5779C22.4676 10.5246 22.4142 10.4846 22.3609 10.4579C22.3342 10.4046 22.2942 10.3646 22.2409 10.3379C22.0542 10.2046 21.8276 10.1379 21.5609 10.1379C21.4542 10.0846 21.3609 10.0579 21.2809 10.0579H20.9609C20.9342 10.0579 20.8409 10.0846 20.6809 10.1379C20.4142 10.2179 20.1876 10.3379 20.0009 10.4979C19.8142 10.6313 19.6142 10.7779 19.4009 10.9379C19.4009 11.0446 19.3476 11.1513 19.2409 11.2579C19.1342 11.3379 19.0542 11.4979 19.0009 11.7379C19.0276 11.8446 19.0409 11.9379 19.0409 12.0179C19.0409 12.0713 19.0542 12.1246 19.0809 12.1779C19.0809 12.3913 19.0942 12.5379 19.1209 12.6179C19.3076 12.8846 19.4276 13.1113 19.4809 13.2979C19.5609 13.5113 19.7342 13.8179 20.0009 14.2179C20.0809 14.4579 20.2676 14.5779 20.5609 14.5779C20.7209 14.5779 20.8542 14.5513 20.9609 14.4979C21.0676 14.4446 21.1609 14.4179 21.2409 14.4179C21.3209 14.5513 21.4409 14.6179 21.6009 14.6179C21.6276 14.6179 21.6542 14.6313 21.6809 14.6579C21.7342 14.6579 21.8276 14.6979 21.9609 14.7779C21.9342 14.8846 21.9742 14.9646 22.0809 15.0179C22.2942 15.0179 22.4542 15.0046 22.5609 14.9779C22.6142 14.9779 22.7742 15.0446 23.0409 15.1779C23.0142 15.3646 23.0409 15.5646 23.1209 15.7779C23.2276 15.9113 23.2542 16.1513 23.2009 16.4979C23.2542 16.7379 23.2676 16.9113 23.2409 17.0179C23.1876 17.1779 23.1476 17.4713 23.1209 17.8979C23.0676 17.9513 23.0676 18.0446 23.1209 18.1779C23.0942 18.2313 23.0809 18.2979 23.0809 18.3779C23.0809 18.4313 23.0676 18.4846 23.0409 18.5379V18.7779C23.0409 18.8846 23.0276 19.0179 23.0009 19.1779L23.0809 19.5779C23.1076 19.6846 23.1476 19.8046 23.2009 19.9379C23.3076 20.2313 23.3742 20.5113 23.4009 20.7779C23.4542 20.8313 23.5076 20.9646 23.5609 21.1779C23.5609 21.3913 23.6142 21.6046 23.7209 21.8179C23.6676 21.9513 23.6676 22.0579 23.7209 22.1379V22.8579C23.5342 23.1246 23.4009 23.3913 23.3209 23.6579C23.2409 23.8979 23.1742 24.1513 23.1209 24.4179C23.0676 24.5513 23.0276 24.6846 23.0009 24.8179C23.0009 24.9513 23.0142 25.1246 23.0409 25.3379V25.7779C23.0676 25.7779 23.0542 25.9379 23.0009 26.2579C23.0276 26.3113 23.0009 26.4579 22.9209 26.6979C22.8676 26.7779 22.8676 26.8846 22.9209 27.0179C22.9209 27.3379 22.8676 27.6179 22.7609 27.8579C22.7076 27.9379 22.6542 28.0446 22.6009 28.1779L22.4809 28.6579C22.3742 28.8179 22.3342 29.0179 22.3609 29.2579V29.6179C22.3609 29.7246 22.3342 29.8446 22.2809 29.9779L22.0409 30.7779V30.9779C21.9609 31.0046 21.9209 31.0846 21.9209 31.2179L21.8409 31.3779C21.8409 31.4046 21.8276 31.4446 21.8009 31.4979L21.2809 31.9779C21.2009 32.0579 21.0809 32.1646 20.9209 32.2979C20.7876 32.4313 20.5876 32.6179 20.3209 32.8579C20.2409 32.8846 20.1609 32.9379 20.0809 33.0179C19.8942 33.1779 19.6809 33.2579 19.4409 33.2579H18.7609C18.7076 33.2046 18.6542 33.1646 18.6009 33.1379C18.5476 33.0846 18.4942 33.0446 18.4409 33.0179C18.3076 33.0179 18.0942 32.9513 17.8009 32.8179L17.4809 32.6979C17.4009 32.6179 17.3076 32.5513 17.2009 32.4979L16.8809 32.1779C16.7742 32.1246 16.7076 32.0313 16.6809 31.8979C16.2809 31.6313 15.9742 31.3246 15.7609 30.9779C15.7342 30.7113 15.7076 30.4046 15.6809 30.0579C15.6542 29.7113 15.7209 29.4179 15.8809 29.1779C15.9076 28.8846 15.9742 28.6446 16.0809 28.4579L16.4409 27.8979C16.5742 27.8179 16.7209 27.7246 16.8809 27.6179C16.9342 27.5646 17.0676 27.4846 17.2809 27.3779L17.7609 27.6579C17.8409 27.7913 18.0009 27.8979 18.2409 27.9779C18.3476 28.1379 18.5209 28.2179 18.7609 28.2179H18.8809C18.9076 28.1913 18.9609 28.2046 19.0409 28.2579C19.1476 28.2579 19.2542 28.2713 19.3609 28.2979C19.4142 28.2713 19.4542 28.2579 19.4809 28.2579C19.5342 28.2313 19.5742 28.1913 19.6009 28.1379L19.8009 27.9379C19.8809 27.8579 19.9609 27.8046 20.0409 27.7779C20.1742 27.7246 20.2942 27.5779 20.4009 27.3379L20.6409 26.7379C20.6409 26.5513 20.5876 26.3779 20.4809 26.2179C20.4542 25.5246 20.2542 25.0046 19.8809 24.6579C19.7742 24.6579 19.6676 24.6313 19.5609 24.5779C19.4542 24.5779 19.2409 24.5113 18.9209 24.3779H18.7609C18.5742 24.3779 18.4409 24.3913 18.3609 24.4179H18.1209C18.0409 24.3913 17.9476 24.3379 17.8409 24.2579C17.7076 24.2846 17.5876 24.3113 17.4809 24.3379L17.1609 24.4179C17.0276 24.4179 16.9076 24.4313 16.8009 24.4579L16.4809 24.5379L15.7609 24.8979L15.3609 25.1379C15.2542 25.1913 15.1342 25.2579 15.0009 25.3379C14.9209 25.4446 14.8009 25.5779 14.6409 25.7379C14.5076 25.7913 14.3609 25.9913 14.2009 26.3379C14.0676 26.3913 13.9876 26.4713 13.9609 26.5779C13.9609 26.6846 13.8142 26.8713 13.5209 27.1379C13.4676 27.1913 13.4142 27.2579 13.3609 27.3379C13.3342 27.3913 13.3076 27.4579 13.2809 27.5379C13.2542 27.5913 13.1342 27.6979 12.9209 27.8579C12.8676 27.9379 12.8409 28.0713 12.8409 28.2579C12.8676 28.3379 12.8542 28.4579 12.8009 28.6179V29.0179C12.8009 29.1246 12.7876 29.2446 12.7609 29.3779C12.7076 29.6179 12.7076 30.0046 12.7609 30.5379C12.7076 30.6713 12.6942 30.8179 12.7209 30.9779C12.7742 31.1113 12.8276 31.2579 12.8809 31.4179C12.9076 31.6579 12.9742 31.8446 13.0809 31.9779L13.7609 33.2179C13.8676 33.2713 13.9342 33.3513 13.9609 33.4579C13.9876 33.5113 14.0276 33.5779 14.0809 33.6579C14.1609 33.7379 14.2542 33.8446 14.3609 33.9779C14.4142 34.1113 14.4676 34.2313 14.5209 34.3379C14.5742 34.4179 14.6276 34.5246 14.6809 34.6579C14.7342 34.7913 14.7876 34.9113 14.8409 35.0179C14.8942 35.1246 14.9742 35.2179 15.0809 35.2979C15.1876 35.3246 15.3476 35.4713 15.5609 35.7379C15.7742 35.8713 16.0009 35.9913 16.2409 36.0979C16.5076 36.1779 16.8276 36.2846 17.2009 36.4179H17.4009C17.5342 36.4446 17.6542 36.4713 17.7609 36.4979C17.8942 36.5246 18.0142 36.5379 18.1209 36.5379C18.2542 36.5379 18.3609 36.5246 18.4409 36.4979C18.5476 36.4713 18.6676 36.4313 18.8009 36.3779C18.7742 36.4046 18.9076 36.4179 19.2009 36.4179C19.3342 36.5246 19.5209 36.5779 19.7609 36.5779C19.8942 36.5779 20.0142 36.5513 20.1209 36.4979L20.5209 36.3379C20.9476 36.3113 21.4142 36.1646 21.9209 35.8979H22.2409C22.3476 35.8713 22.4542 35.8313 22.5609 35.7779C22.6409 35.7246 22.7209 35.6846 22.8009 35.6579C22.8809 35.6313 22.9876 35.6046 23.1209 35.5779C23.2009 35.4979 23.2809 35.4313 23.3609 35.3779C23.4676 35.2979 23.5609 35.2313 23.6409 35.1779C23.8542 35.0179 24.0142 34.8846 24.1209 34.7779C24.2809 34.5379 24.5076 34.3246 24.8009 34.1379C24.8542 34.0846 24.8942 34.0313 24.9209 33.9779L25.0009 33.8179C25.0542 33.6846 25.1876 33.5113 25.4009 33.2979L25.5209 32.8979C25.5742 32.8446 25.6142 32.7913 25.6409 32.7379C25.6676 32.6846 25.7076 32.6313 25.7609 32.5779C25.8676 32.3379 25.9342 32.1113 25.9609 31.8979V31.5779C25.9876 31.4713 26.0009 31.3646 26.0009 31.2579C26.1342 30.9646 26.2009 30.5646 26.2009 30.0579C26.1476 29.6046 26.2276 29.2179 26.4409 28.8979C26.3342 28.6579 26.3609 28.4313 26.5209 28.2179C26.4409 27.9513 26.4676 27.6579 26.6009 27.3379C26.5476 27.2046 26.5342 27.1113 26.5609 27.0579C26.5876 26.9513 26.5742 26.8179 26.5209 26.6579C26.5476 26.6313 26.5076 26.5513 26.4009 26.4179C26.3742 26.3646 26.3609 26.3246 26.3609 26.2979C26.3609 26.2446 26.3476 26.1913 26.3209 26.1379C26.2409 25.9246 26.1342 25.7779 26.0009 25.6979C25.9476 25.6446 25.9076 25.5779 25.8809 25.4979C25.8542 25.3913 25.8676 25.3113 25.9209 25.2579C25.9742 25.2046 26.0276 25.1113 26.0809 24.9779C26.1342 24.8179 26.1609 24.6313 26.1609 24.4179C26.1609 24.2579 26.1476 24.1246 26.1209 24.0179C26.0942 23.9646 26.0809 23.9113 26.0809 23.8579V23.6979C26.0542 23.4579 26.0542 23.2313 26.0809 23.0179C26.1342 22.8046 26.1342 22.6046 26.0809 22.4179C26.0809 22.2313 26.0942 22.1113 26.1209 22.0579V21.6979C26.1742 21.3779 26.1876 21.1246 26.1609 20.9379C26.1609 20.7513 26.1342 20.5513 26.0809 20.3379C26.0542 20.2313 26.0409 20.1379 26.0409 20.0579V19.7779C26.0142 19.6713 26.0009 19.4846 26.0009 19.2179C25.9742 19.1113 25.9609 18.9513 25.9609 18.7379V18.3379C25.9342 18.2046 25.9076 18.0979 25.8809 18.0179V17.8179V17.1779C25.8809 16.9379 25.9476 16.6446 26.0809 16.2979C26.1076 16.2446 26.1209 16.1379 26.1209 15.9779C26.1209 15.6313 26.1742 15.3913 26.2809 15.2579C26.3876 15.2046 26.4809 15.1779 26.5609 15.1779C26.7476 15.1779 26.8942 15.2179 27.0009 15.2979C27.0276 15.2979 27.0542 15.3113 27.0809 15.3379H27.2009C27.2276 15.3379 27.3476 15.3113 27.5609 15.2579H27.8809C28.0409 15.2579 28.1609 15.2446 28.2409 15.2179C28.5076 15.0846 28.7609 14.9513 29.0009 14.8179C29.2676 14.6579 29.4409 14.4046 29.5209 14.0579C29.5742 13.9513 29.6009 13.8579 29.6009 13.7779C29.5742 13.7246 29.5609 13.6846 29.5609 13.6579C29.5876 13.6046 29.6009 13.5513 29.6009 13.4979L29.4809 13.1379C29.4009 12.9779 29.3342 12.8846 29.2809 12.8579L29.1209 12.4579C29.0676 12.3246 29.0142 12.1779 28.9609 12.0179C28.8809 11.6979 28.6809 11.4446 28.3609 11.2579C28.2009 11.2046 28.0942 11.1513 28.0409 11.0979C27.9876 11.0446 27.8942 10.9646 27.7609 10.8579C27.6542 10.7513 27.5342 10.6979 27.4009 10.6979C27.3209 10.6979 27.2676 10.7113 27.2409 10.7379C27.1342 10.7913 26.9209 10.8179 26.6009 10.8179C26.5209 10.8713 26.4409 10.9113 26.3609 10.9379C26.3076 10.9646 26.2142 10.9779 26.0809 10.9779H25.8809C25.8276 10.9513 25.7476 10.9246 25.6409 10.8979C25.5076 10.8979 25.3476 10.9113 25.1609 10.9379ZM19.0409 13.9779H18.8009L18.5609 14.0979C18.4276 14.1513 18.3209 14.2713 18.2409 14.4579C18.1342 14.7246 18.1609 14.9913 18.3209 15.2579C18.5076 15.4446 18.7209 15.5379 18.9609 15.5379C19.2009 15.5379 19.4009 15.4579 19.5609 15.2979C19.6142 15.1646 19.6542 15.0313 19.6809 14.8979C19.7076 14.7379 19.6942 14.5913 19.6409 14.4579L19.5609 14.3379C19.5342 14.3113 19.3609 14.1913 19.0409 13.9779ZM20.0809 16.6979C20.1876 16.6979 20.3742 16.6313 20.6409 16.4979C20.6409 16.3113 20.5742 16.1646 20.4409 16.0579C20.3342 15.9246 20.2009 15.8579 20.0409 15.8579C19.8809 15.8579 19.7476 15.9113 19.6409 16.0179C19.6409 16.3113 19.7876 16.5379 20.0809 16.6979ZM27.4409 16.2979L27.1209 16.5379C27.1209 16.8313 27.1476 17.0446 27.2009 17.1779L27.3609 17.4179C27.4409 17.4979 27.6142 17.5646 27.8809 17.6179C27.9076 17.5913 27.9876 17.5379 28.1209 17.4579L28.2409 17.2179C28.2942 17.1646 28.3209 17.0846 28.3209 16.9779C28.3209 16.8446 28.2942 16.7513 28.2409 16.6979C28.2142 16.6446 28.1876 16.6046 28.1609 16.5779C28.1342 16.5513 28.1076 16.5113 28.0809 16.4579L27.4409 16.2979Z" fill="url(#paint1_linear_255_1144)"/>
<path d="M53.312 33.248C55.056 33.248 55.928 31.84 55.928 29.024C55.928 27.6 55.728 26.52 55.328 25.784C54.944 25.048 54.288 24.68 53.36 24.68C52.448 24.68 51.776 25.032 51.344 25.736C50.912 26.44 50.696 27.4 50.696 28.616C50.696 30.872 51.112 32.288 51.944 32.864C52.312 33.12 52.768 33.248 53.312 33.248ZM47.792 28.952C47.792 27.768 47.968 26.744 48.32 25.88C48.672 25 49.144 24.328 49.736 23.864C50.872 23 52.128 22.568 53.504 22.568C54.464 22.568 55.272 22.728 55.928 23.048C56.6 23.352 57.12 23.712 57.488 24.128C57.872 24.528 58.192 25.12 58.448 25.904C58.72 26.672 58.856 27.584 58.856 28.64C58.856 30.848 58.32 32.52 57.248 33.656C56.176 34.792 54.8 35.36 53.12 35.36C51.456 35.36 50.152 34.824 49.208 33.752C48.264 32.664 47.792 31.064 47.792 28.952ZM61.0589 34.28V20.504C61.0589 20.136 60.8589 19.944 60.4589 19.928L59.6189 19.88V17.888H63.8429V23.576C64.5629 22.904 65.5309 22.568 66.7469 22.568C68.2509 22.568 69.4429 23.08 70.3229 24.104C71.2029 25.112 71.6429 26.536 71.6429 28.376C71.6429 33 69.7069 35.312 65.8349 35.312C65.0029 35.312 64.1229 35.208 63.1949 35C62.2829 34.808 61.5709 34.568 61.0589 34.28ZM63.8429 26.504V32.72C64.4509 33.04 65.1549 33.2 65.9549 33.2C67.7789 33.2 68.6909 31.72 68.6909 28.76C68.6909 26.056 67.7949 24.704 66.0029 24.704C65.4269 24.704 64.9229 24.872 64.4909 25.208C64.0589 25.544 63.8429 25.976 63.8429 26.504ZM74.4509 31.864L78.9589 18.816L77.1949 18.648V16.38H83.6069L89.3189 32.536H89.3469L90.9429 32.62V35H83.7189V32.732L84.7829 32.648C85.1002 32.6107 85.3149 32.536 85.4269 32.424C85.5389 32.312 85.5482 32.1067 85.4549 31.808L84.8669 30.072H78.3149L77.4749 32.536L79.1549 32.62V35H72.6869V32.732L73.6109 32.648C74.0029 32.6107 74.2829 32.3493 74.4509 31.864ZM81.5909 19.516L78.9869 27.496H84.1949L81.6749 19.516H81.5909ZM97.9019 22.568C98.5899 22.568 99.2459 22.664 99.8699 22.856V20.432C99.8699 20.08 99.6619 19.888 99.2459 19.856L98.2139 19.784V17.888H102.678V32.48C102.694 32.848 102.894 33.032 103.278 33.032L104.118 33.08V35H100.23V33.584L100.158 33.56C99.4379 34.728 98.3499 35.312 96.8939 35.312C95.0699 35.312 93.7899 34.704 93.0539 33.488C92.3819 32.384 92.0459 31.032 92.0459 29.432C92.0459 27.352 92.5579 25.688 93.5819 24.44C94.6219 23.192 96.0619 22.568 97.9019 22.568ZM99.8699 31.256V25.04C99.2939 24.784 98.6859 24.656 98.0459 24.656C96.9899 24.656 96.2139 25.08 95.7179 25.928C95.2379 26.776 94.9979 27.856 94.9979 29.168C94.9979 31.856 95.8619 33.2 97.5899 33.2C98.2459 33.2 98.7899 33.016 99.2219 32.648C99.6539 32.264 99.8699 31.8 99.8699 31.256ZM114.351 34.544V32.72C113.471 33.968 112.175 34.592 110.463 34.592C107.983 34.592 106.743 33.208 106.743 30.44V25.616C106.743 25.184 106.543 24.96 106.143 24.944L105.375 24.896V22.928H109.599V29.816C109.599 30.664 109.719 31.304 109.959 31.736C110.199 32.168 110.695 32.384 111.447 32.384C112.199 32.384 112.799 32.152 113.247 31.688C113.711 31.224 113.943 30.664 113.943 30.008V25.664C113.943 25.392 113.895 25.208 113.799 25.112C113.719 25 113.567 24.944 113.343 24.944L112.575 24.896V22.928H116.799V34.544C116.799 36.48 116.327 37.896 115.383 38.792C114.455 39.688 113.039 40.136 111.135 40.136C109.247 40.136 107.775 39.872 106.719 39.344V36.008L108.999 35.816V36.968C108.999 37.4 109.199 37.688 109.599 37.832C109.999 37.992 110.551 38.072 111.255 38.072C113.319 38.072 114.351 36.896 114.351 34.544ZM125.564 24.752C125.18 24.608 124.716 24.536 124.172 24.536C123.628 24.536 123.188 24.664 122.852 24.92C122.532 25.16 122.372 25.464 122.372 25.832C122.372 26.184 122.428 26.464 122.54 26.672C122.668 26.864 122.86 27.032 123.116 27.176C123.516 27.384 123.996 27.568 124.556 27.728C125.116 27.872 125.532 27.992 125.804 28.088C126.076 28.168 126.412 28.312 126.812 28.52C127.228 28.728 127.54 28.952 127.748 29.192C128.308 29.784 128.588 30.544 128.588 31.472C128.588 32.672 128.148 33.616 127.268 34.304C126.404 34.976 125.3 35.312 123.956 35.312C122.004 35.312 120.532 35.064 119.54 34.568V31.232L121.7 31.064V32.216C121.7 32.92 122.372 33.272 123.716 33.272C125.06 33.272 125.732 32.784 125.732 31.808C125.732 31.456 125.612 31.168 125.372 30.944C125.148 30.72 124.924 30.568 124.7 30.488C124.476 30.408 124.204 30.328 123.884 30.248C123.58 30.168 123.276 30.088 122.972 30.008C122.684 29.928 122.364 29.824 122.012 29.696C121.676 29.552 121.3 29.352 120.884 29.096C120.068 28.568 119.66 27.688 119.66 26.456C119.66 25.208 120.1 24.248 120.98 23.576C121.86 22.904 122.964 22.568 124.292 22.568C125.636 22.568 126.964 22.888 128.276 23.528V26.408L126.116 26.576V25.568C126.116 25.168 125.932 24.896 125.564 24.752Z" fill="white"/>
<defs>
<linearGradient id="paint0_linear_255_1144" x1="20" y1="8.5" x2="24.5" y2="36" gradientUnits="userSpaceOnUse">
<stop stop-color="#DB2020"/>
<stop offset="0.9999" stop-color="#FFC632"/>
<stop offset="1" stop-color="#E0C015"/>
</linearGradient>
<linearGradient id="paint1_linear_255_1144" x1="29.5" y1="45.5" x2="10.5" y2="1.5" gradientUnits="userSpaceOnUse">
<stop stop-color="#1B3F60"/>
<stop offset="1" stop-color="#3982C6"/>
</linearGradient>
</defs>
</svg>
