<svg width="154" height="48" viewBox="0 0 154 48" fill="none" xmlns="http://www.w3.org/2000/svg">
<rect x="9" y="6" width="26" height="35" fill="url(#paint0_linear_255_63)"/>
<path fill-rule="evenodd" clip-rule="evenodd" d="M1.15855 1.68797C0.465607 1.5771 -0.123025 2.19581 0.0222092 2.88237L5.22089 27.4579L0.943309 38.3463C0.29064 40.0077 1.22416 41.8679 2.94621 42.3376L20.8446 47.219C21.416 47.3748 22.0207 47.358 22.5826 47.1707L38.2695 41.9417C39.1812 41.6378 39.8922 40.9155 40.1816 39.9991L42.4656 32.7664C42.6325 32.2378 42.6497 31.6732 42.5153 31.1354L39.9562 20.899C39.8032 20.2872 39.847 19.6428 40.0812 19.0573L42.3475 13.3915C42.5898 12.7857 42.628 12.1174 42.4563 11.4879L40.2673 3.46164C39.9386 2.25619 38.8971 1.38072 37.6531 1.26409L24.3092 0.0130975C23.9207 -0.0233192 23.5289 0.0163824 23.1556 0.129978L12.884 3.25615C12.4477 3.38893 11.9868 3.4205 11.5365 3.34845L1.15855 1.68797ZM17.2409 30.5379C17.3209 30.5379 17.4276 30.5246 17.5609 30.4979C17.6142 30.4446 17.6809 30.4046 17.7609 30.3779C17.8409 30.3513 17.9209 30.3113 18.0009 30.2579C18.1876 30.1246 18.2809 29.9913 18.2809 29.8579C18.3342 29.5646 18.2676 29.2979 18.0809 29.0579C17.8942 28.8179 17.6942 28.6979 17.4809 28.6979C17.3742 28.6979 17.2942 28.7113 17.2409 28.7379L16.8009 29.1379C16.6142 29.2713 16.5076 29.4313 16.4809 29.6179C16.4809 29.9379 16.5209 30.1779 16.6009 30.3379C16.6809 30.4713 16.8942 30.5379 17.2409 30.5379ZM18.8009 31.0979C18.7742 30.9913 18.6276 30.9113 18.3609 30.8579L18.0809 30.9779C17.9742 30.9779 17.8409 31.1379 17.6809 31.4579C17.6809 31.7246 17.8276 31.8579 18.1209 31.8579C18.4142 31.8579 18.6409 31.6846 18.8009 31.3379C18.8542 31.2846 18.8542 31.2046 18.8009 31.0979ZM25.1609 10.9379C25.0009 10.9646 24.8942 11.0046 24.8409 11.0579L24.6809 10.9779C24.6276 11.0046 24.5742 11.0179 24.5209 11.0179C24.4676 10.9913 24.3476 11.0046 24.1609 11.0579C24.1076 11.0579 24.0542 11.0713 24.0009 11.0979H23.8009C23.6142 11.2046 23.4409 11.2579 23.2809 11.2579C23.2276 11.2579 23.1342 11.2179 23.0009 11.1379C22.8676 11.0579 22.7742 10.9913 22.7209 10.9379C22.6142 10.8313 22.5476 10.7113 22.5209 10.5779C22.4676 10.5246 22.4142 10.4846 22.3609 10.4579C22.3342 10.4046 22.2942 10.3646 22.2409 10.3379C22.0542 10.2046 21.8276 10.1379 21.5609 10.1379C21.4542 10.0846 21.3609 10.0579 21.2809 10.0579H20.9609C20.9342 10.0579 20.8409 10.0846 20.6809 10.1379C20.4142 10.2179 20.1876 10.3379 20.0009 10.4979C19.8142 10.6313 19.6142 10.7779 19.4009 10.9379C19.4009 11.0446 19.3476 11.1513 19.2409 11.2579C19.1342 11.3379 19.0542 11.4979 19.0009 11.7379C19.0276 11.8446 19.0409 11.9379 19.0409 12.0179C19.0409 12.0713 19.0542 12.1246 19.0809 12.1779C19.0809 12.3913 19.0942 12.5379 19.1209 12.6179C19.3076 12.8846 19.4276 13.1113 19.4809 13.2979C19.5609 13.5113 19.7342 13.8179 20.0009 14.2179C20.0809 14.4579 20.2676 14.5779 20.5609 14.5779C20.7209 14.5779 20.8542 14.5513 20.9609 14.4979C21.0676 14.4446 21.1609 14.4179 21.2409 14.4179C21.3209 14.5513 21.4409 14.6179 21.6009 14.6179C21.6276 14.6179 21.6542 14.6313 21.6809 14.6579C21.7342 14.6579 21.8276 14.6979 21.9609 14.7779C21.9342 14.8846 21.9742 14.9646 22.0809 15.0179C22.2942 15.0179 22.4542 15.0046 22.5609 14.9779C22.6142 14.9779 22.7742 15.0446 23.0409 15.1779C23.0142 15.3646 23.0409 15.5646 23.1209 15.7779C23.2276 15.9113 23.2542 16.1513 23.2009 16.4979C23.2542 16.7379 23.2676 16.9113 23.2409 17.0179C23.1876 17.1779 23.1476 17.4713 23.1209 17.8979C23.0676 17.9513 23.0676 18.0446 23.1209 18.1779C23.0942 18.2313 23.0809 18.2979 23.0809 18.3779C23.0809 18.4313 23.0676 18.4846 23.0409 18.5379V18.7779C23.0409 18.8846 23.0276 19.0179 23.0009 19.1779L23.0809 19.5779C23.1076 19.6846 23.1476 19.8046 23.2009 19.9379C23.3076 20.2313 23.3742 20.5113 23.4009 20.7779C23.4542 20.8313 23.5076 20.9646 23.5609 21.1779C23.5609 21.3913 23.6142 21.6046 23.7209 21.8179C23.6676 21.9513 23.6676 22.0579 23.7209 22.1379V22.8579C23.5342 23.1246 23.4009 23.3913 23.3209 23.6579C23.2409 23.8979 23.1742 24.1513 23.1209 24.4179C23.0676 24.5513 23.0276 24.6846 23.0009 24.8179C23.0009 24.9513 23.0142 25.1246 23.0409 25.3379V25.7779C23.0676 25.7779 23.0542 25.9379 23.0009 26.2579C23.0276 26.3113 23.0009 26.4579 22.9209 26.6979C22.8676 26.7779 22.8676 26.8846 22.9209 27.0179C22.9209 27.3379 22.8676 27.6179 22.7609 27.8579C22.7076 27.9379 22.6542 28.0446 22.6009 28.1779L22.4809 28.6579C22.3742 28.8179 22.3342 29.0179 22.3609 29.2579V29.6179C22.3609 29.7246 22.3342 29.8446 22.2809 29.9779L22.0409 30.7779V30.9779C21.9609 31.0046 21.9209 31.0846 21.9209 31.2179L21.8409 31.3779C21.8409 31.4046 21.8276 31.4446 21.8009 31.4979L21.2809 31.9779C21.2009 32.0579 21.0809 32.1646 20.9209 32.2979C20.7876 32.4313 20.5876 32.6179 20.3209 32.8579C20.2409 32.8846 20.1609 32.9379 20.0809 33.0179C19.8942 33.1779 19.6809 33.2579 19.4409 33.2579H18.7609C18.7076 33.2046 18.6542 33.1646 18.6009 33.1379C18.5476 33.0846 18.4942 33.0446 18.4409 33.0179C18.3076 33.0179 18.0942 32.9513 17.8009 32.8179L17.4809 32.6979C17.4009 32.6179 17.3076 32.5513 17.2009 32.4979L16.8809 32.1779C16.7742 32.1246 16.7076 32.0313 16.6809 31.8979C16.2809 31.6313 15.9742 31.3246 15.7609 30.9779C15.7342 30.7113 15.7076 30.4046 15.6809 30.0579C15.6542 29.7113 15.7209 29.4179 15.8809 29.1779C15.9076 28.8846 15.9742 28.6446 16.0809 28.4579L16.4409 27.8979C16.5742 27.8179 16.7209 27.7246 16.8809 27.6179C16.9342 27.5646 17.0676 27.4846 17.2809 27.3779L17.7609 27.6579C17.8409 27.7913 18.0009 27.8979 18.2409 27.9779C18.3476 28.1379 18.5209 28.2179 18.7609 28.2179H18.8809C18.9076 28.1913 18.9609 28.2046 19.0409 28.2579C19.1476 28.2579 19.2542 28.2713 19.3609 28.2979C19.4142 28.2713 19.4542 28.2579 19.4809 28.2579C19.5342 28.2313 19.5742 28.1913 19.6009 28.1379L19.8009 27.9379C19.8809 27.8579 19.9609 27.8046 20.0409 27.7779C20.1742 27.7246 20.2942 27.5779 20.4009 27.3379L20.6409 26.7379C20.6409 26.5513 20.5876 26.3779 20.4809 26.2179C20.4542 25.5246 20.2542 25.0046 19.8809 24.6579C19.7742 24.6579 19.6676 24.6313 19.5609 24.5779C19.4542 24.5779 19.2409 24.5113 18.9209 24.3779H18.7609C18.5742 24.3779 18.4409 24.3913 18.3609 24.4179H18.1209C18.0409 24.3913 17.9476 24.3379 17.8409 24.2579C17.7076 24.2846 17.5876 24.3113 17.4809 24.3379L17.1609 24.4179C17.0276 24.4179 16.9076 24.4313 16.8009 24.4579L16.4809 24.5379L15.7609 24.8979L15.3609 25.1379C15.2542 25.1913 15.1342 25.2579 15.0009 25.3379C14.9209 25.4446 14.8009 25.5779 14.6409 25.7379C14.5076 25.7913 14.3609 25.9913 14.2009 26.3379C14.0676 26.3913 13.9876 26.4713 13.9609 26.5779C13.9609 26.6846 13.8142 26.8713 13.5209 27.1379C13.4676 27.1913 13.4142 27.2579 13.3609 27.3379C13.3342 27.3913 13.3076 27.4579 13.2809 27.5379C13.2542 27.5913 13.1342 27.6979 12.9209 27.8579C12.8676 27.9379 12.8409 28.0713 12.8409 28.2579C12.8676 28.3379 12.8542 28.4579 12.8009 28.6179V29.0179C12.8009 29.1246 12.7876 29.2446 12.7609 29.3779C12.7076 29.6179 12.7076 30.0046 12.7609 30.5379C12.7076 30.6713 12.6942 30.8179 12.7209 30.9779C12.7742 31.1113 12.8276 31.2579 12.8809 31.4179C12.9076 31.6579 12.9742 31.8446 13.0809 31.9779L13.7609 33.2179C13.8676 33.2713 13.9342 33.3513 13.9609 33.4579C13.9876 33.5113 14.0276 33.5779 14.0809 33.6579C14.1609 33.7379 14.2542 33.8446 14.3609 33.9779C14.4142 34.1113 14.4676 34.2313 14.5209 34.3379C14.5742 34.4179 14.6276 34.5246 14.6809 34.6579C14.7342 34.7913 14.7876 34.9113 14.8409 35.0179C14.8942 35.1246 14.9742 35.2179 15.0809 35.2979C15.1876 35.3246 15.3476 35.4713 15.5609 35.7379C15.7742 35.8713 16.0009 35.9913 16.2409 36.0979C16.5076 36.1779 16.8276 36.2846 17.2009 36.4179H17.4009C17.5342 36.4446 17.6542 36.4713 17.7609 36.4979C17.8942 36.5246 18.0142 36.5379 18.1209 36.5379C18.2542 36.5379 18.3609 36.5246 18.4409 36.4979C18.5476 36.4713 18.6676 36.4313 18.8009 36.3779C18.7742 36.4046 18.9076 36.4179 19.2009 36.4179C19.3342 36.5246 19.5209 36.5779 19.7609 36.5779C19.8942 36.5779 20.0142 36.5513 20.1209 36.4979L20.5209 36.3379C20.9476 36.3113 21.4142 36.1646 21.9209 35.8979H22.2409C22.3476 35.8713 22.4542 35.8313 22.5609 35.7779C22.6409 35.7246 22.7209 35.6846 22.8009 35.6579C22.8809 35.6313 22.9876 35.6046 23.1209 35.5779C23.2009 35.4979 23.2809 35.4313 23.3609 35.3779C23.4676 35.2979 23.5609 35.2313 23.6409 35.1779C23.8542 35.0179 24.0142 34.8846 24.1209 34.7779C24.2809 34.5379 24.5076 34.3246 24.8009 34.1379C24.8542 34.0846 24.8942 34.0313 24.9209 33.9779L25.0009 33.8179C25.0542 33.6846 25.1876 33.5113 25.4009 33.2979L25.5209 32.8979C25.5742 32.8446 25.6142 32.7913 25.6409 32.7379C25.6676 32.6846 25.7076 32.6313 25.7609 32.5779C25.8676 32.3379 25.9342 32.1113 25.9609 31.8979V31.5779C25.9876 31.4713 26.0009 31.3646 26.0009 31.2579C26.1342 30.9646 26.2009 30.5646 26.2009 30.0579C26.1476 29.6046 26.2276 29.2179 26.4409 28.8979C26.3342 28.6579 26.3609 28.4313 26.5209 28.2179C26.4409 27.9513 26.4676 27.6579 26.6009 27.3379C26.5476 27.2046 26.5342 27.1113 26.5609 27.0579C26.5876 26.9513 26.5742 26.8179 26.5209 26.6579C26.5476 26.6313 26.5076 26.5513 26.4009 26.4179C26.3742 26.3646 26.3609 26.3246 26.3609 26.2979C26.3609 26.2446 26.3476 26.1913 26.3209 26.1379C26.2409 25.9246 26.1342 25.7779 26.0009 25.6979C25.9476 25.6446 25.9076 25.5779 25.8809 25.4979C25.8542 25.3913 25.8676 25.3113 25.9209 25.2579C25.9742 25.2046 26.0276 25.1113 26.0809 24.9779C26.1342 24.8179 26.1609 24.6313 26.1609 24.4179C26.1609 24.2579 26.1476 24.1246 26.1209 24.0179C26.0942 23.9646 26.0809 23.9113 26.0809 23.8579V23.6979C26.0542 23.4579 26.0542 23.2313 26.0809 23.0179C26.1342 22.8046 26.1342 22.6046 26.0809 22.4179C26.0809 22.2313 26.0942 22.1113 26.1209 22.0579V21.6979C26.1742 21.3779 26.1876 21.1246 26.1609 20.9379C26.1609 20.7513 26.1342 20.5513 26.0809 20.3379C26.0542 20.2313 26.0409 20.1379 26.0409 20.0579V19.7779C26.0142 19.6713 26.0009 19.4846 26.0009 19.2179C25.9742 19.1113 25.9609 18.9513 25.9609 18.7379V18.3379C25.9342 18.2046 25.9076 18.0979 25.8809 18.0179V17.8179V17.1779C25.8809 16.9379 25.9476 16.6446 26.0809 16.2979C26.1076 16.2446 26.1209 16.1379 26.1209 15.9779C26.1209 15.6313 26.1742 15.3913 26.2809 15.2579C26.3876 15.2046 26.4809 15.1779 26.5609 15.1779C26.7476 15.1779 26.8942 15.2179 27.0009 15.2979C27.0276 15.2979 27.0542 15.3113 27.0809 15.3379H27.2009C27.2276 15.3379 27.3476 15.3113 27.5609 15.2579H27.8809C28.0409 15.2579 28.1609 15.2446 28.2409 15.2179C28.5076 15.0846 28.7609 14.9513 29.0009 14.8179C29.2676 14.6579 29.4409 14.4046 29.5209 14.0579C29.5742 13.9513 29.6009 13.8579 29.6009 13.7779C29.5742 13.7246 29.5609 13.6846 29.5609 13.6579C29.5876 13.6046 29.6009 13.5513 29.6009 13.4979L29.4809 13.1379C29.4009 12.9779 29.3342 12.8846 29.2809 12.8579L29.1209 12.4579C29.0676 12.3246 29.0142 12.1779 28.9609 12.0179C28.8809 11.6979 28.6809 11.4446 28.3609 11.2579C28.2009 11.2046 28.0942 11.1513 28.0409 11.0979C27.9876 11.0446 27.8942 10.9646 27.7609 10.8579C27.6542 10.7513 27.5342 10.6979 27.4009 10.6979C27.3209 10.6979 27.2676 10.7113 27.2409 10.7379C27.1342 10.7913 26.9209 10.8179 26.6009 10.8179C26.5209 10.8713 26.4409 10.9113 26.3609 10.9379C26.3076 10.9646 26.2142 10.9779 26.0809 10.9779H25.8809C25.8276 10.9513 25.7476 10.9246 25.6409 10.8979C25.5076 10.8979 25.3476 10.9113 25.1609 10.9379ZM19.0409 13.9779H18.8009L18.5609 14.0979C18.4276 14.1513 18.3209 14.2713 18.2409 14.4579C18.1342 14.7246 18.1609 14.9913 18.3209 15.2579C18.5076 15.4446 18.7209 15.5379 18.9609 15.5379C19.2009 15.5379 19.4009 15.4579 19.5609 15.2979C19.6142 15.1646 19.6542 15.0313 19.6809 14.8979C19.7076 14.7379 19.6942 14.5913 19.6409 14.4579L19.5609 14.3379C19.5342 14.3113 19.3609 14.1913 19.0409 13.9779ZM20.0809 16.6979C20.1876 16.6979 20.3742 16.6313 20.6409 16.4979C20.6409 16.3113 20.5742 16.1646 20.4409 16.0579C20.3342 15.9246 20.2009 15.8579 20.0409 15.8579C19.8809 15.8579 19.7476 15.9113 19.6409 16.0179C19.6409 16.3113 19.7876 16.5379 20.0809 16.6979ZM27.4409 16.2979L27.1209 16.5379C27.1209 16.8313 27.1476 17.0446 27.2009 17.1779L27.3609 17.4179C27.4409 17.4979 27.6142 17.5646 27.8809 17.6179C27.9076 17.5913 27.9876 17.5379 28.1209 17.4579L28.2409 17.2179C28.2942 17.1646 28.3209 17.0846 28.3209 16.9779C28.3209 16.8446 28.2942 16.7513 28.2409 16.6979C28.2142 16.6446 28.1876 16.6046 28.1609 16.5779C28.1342 16.5513 28.1076 16.5113 28.0809 16.4579L27.4409 16.2979Z" fill="url(#paint1_linear_255_63)"/>
<path d="M63.576 29.712C63.2133 32.848 61.112 34.416 57.272 34.416C55.2667 34.416 53.4747 33.968 51.896 33.072V27.472L55.16 27.248V29.776C55.16 30.096 55.2027 30.3307 55.288 30.48C55.3733 30.6293 55.5973 30.7787 55.96 30.928C56.3227 31.056 56.8773 31.12 57.624 31.12C58.392 31.12 58.9467 30.896 59.288 30.448C59.6293 29.9787 59.8 29.232 59.8 28.208V15.568L57.304 15.44V12.72H65.688V15.312L64.632 15.408C64.0133 15.472 63.704 15.8027 63.704 16.4V26.352C63.704 27.8667 63.6613 28.9867 63.576 29.712ZM72.4683 32.248C74.2123 32.248 75.0843 30.84 75.0843 28.024C75.0843 26.6 74.8843 25.52 74.4843 24.784C74.1003 24.048 73.4443 23.68 72.5163 23.68C71.6043 23.68 70.9323 24.032 70.5003 24.736C70.0683 25.44 69.8523 26.4 69.8523 27.616C69.8523 29.872 70.2683 31.288 71.1003 31.864C71.4683 32.12 71.9243 32.248 72.4683 32.248ZM66.9482 27.952C66.9482 26.768 67.1243 25.744 67.4763 24.88C67.8283 24 68.3003 23.328 68.8923 22.864C70.0283 22 71.2843 21.568 72.6603 21.568C73.6203 21.568 74.4283 21.728 75.0843 22.048C75.7563 22.352 76.2763 22.712 76.6443 23.128C77.0283 23.528 77.3483 24.12 77.6043 24.904C77.8763 25.672 78.0123 26.584 78.0123 27.64C78.0123 29.848 77.4763 31.52 76.4043 32.656C75.3323 33.792 73.9563 34.36 72.2763 34.36C70.6123 34.36 69.3083 33.824 68.3643 32.752C67.4203 31.664 66.9482 30.064 66.9482 27.952ZM80.2152 33.28V19.504C80.2152 19.136 80.0152 18.944 79.6152 18.928L78.7752 18.88V16.888H82.9992V22.576C83.7192 21.904 84.6872 21.568 85.9032 21.568C87.4072 21.568 88.5992 22.08 89.4792 23.104C90.3592 24.112 90.7992 25.536 90.7992 27.376C90.7992 32 88.8632 34.312 84.9912 34.312C84.1592 34.312 83.2792 34.208 82.3512 34C81.4392 33.808 80.7272 33.568 80.2152 33.28ZM82.9992 25.504V31.72C83.6072 32.04 84.3112 32.2 85.1112 32.2C86.9352 32.2 87.8472 30.72 87.8472 27.76C87.8472 25.056 86.9512 23.704 85.1592 23.704C84.5832 23.704 84.0792 23.872 83.6472 24.208C83.2152 24.544 82.9992 24.976 82.9992 25.504ZM93.6071 30.864L98.1151 17.816L96.3511 17.648V15.38H102.763L108.475 31.536H108.503L110.099 31.62V34H102.875V31.732L103.939 31.648C104.256 31.6107 104.471 31.536 104.583 31.424C104.695 31.312 104.704 31.1067 104.611 30.808L104.023 29.072H97.4711L96.6311 31.536L98.3111 31.62V34H91.8431V31.732L92.7671 31.648C93.1591 31.6107 93.4391 31.3493 93.6071 30.864ZM100.747 18.516L98.1431 26.496H103.351L100.831 18.516H100.747ZM117.058 21.568C117.746 21.568 118.402 21.664 119.026 21.856V19.432C119.026 19.08 118.818 18.888 118.402 18.856L117.37 18.784V16.888H121.834V31.48C121.85 31.848 122.05 32.032 122.434 32.032L123.274 32.08V34H119.386V32.584L119.314 32.56C118.594 33.728 117.506 34.312 116.05 34.312C114.226 34.312 112.946 33.704 112.21 32.488C111.538 31.384 111.202 30.032 111.202 28.432C111.202 26.352 111.714 24.688 112.738 23.44C113.778 22.192 115.218 21.568 117.058 21.568ZM119.026 30.256V24.04C118.45 23.784 117.842 23.656 117.202 23.656C116.146 23.656 115.37 24.08 114.874 24.928C114.394 25.776 114.154 26.856 114.154 28.168C114.154 30.856 115.018 32.2 116.746 32.2C117.402 32.2 117.946 32.016 118.378 31.648C118.81 31.264 119.026 30.8 119.026 30.256ZM133.507 33.544V31.72C132.627 32.968 131.331 33.592 129.619 33.592C127.139 33.592 125.899 32.208 125.899 29.44V24.616C125.899 24.184 125.699 23.96 125.299 23.944L124.531 23.896V21.928H128.755V28.816C128.755 29.664 128.875 30.304 129.115 30.736C129.355 31.168 129.851 31.384 130.603 31.384C131.355 31.384 131.955 31.152 132.403 30.688C132.867 30.224 133.099 29.664 133.099 29.008V24.664C133.099 24.392 133.051 24.208 132.955 24.112C132.875 24 132.723 23.944 132.499 23.944L131.731 23.896V21.928H135.955V33.544C135.955 35.48 135.483 36.896 134.539 37.792C133.611 38.688 132.195 39.136 130.291 39.136C128.403 39.136 126.931 38.872 125.875 38.344V35.008L128.155 34.816V35.968C128.155 36.4 128.355 36.688 128.755 36.832C129.155 36.992 129.707 37.072 130.411 37.072C132.475 37.072 133.507 35.896 133.507 33.544ZM144.721 23.752C144.337 23.608 143.873 23.536 143.329 23.536C142.785 23.536 142.345 23.664 142.009 23.92C141.689 24.16 141.529 24.464 141.529 24.832C141.529 25.184 141.585 25.464 141.697 25.672C141.825 25.864 142.017 26.032 142.273 26.176C142.673 26.384 143.153 26.568 143.713 26.728C144.273 26.872 144.689 26.992 144.961 27.088C145.233 27.168 145.569 27.312 145.969 27.52C146.385 27.728 146.697 27.952 146.905 28.192C147.465 28.784 147.745 29.544 147.745 30.472C147.745 31.672 147.305 32.616 146.425 33.304C145.561 33.976 144.457 34.312 143.113 34.312C141.161 34.312 139.689 34.064 138.697 33.568V30.232L140.857 30.064V31.216C140.857 31.92 141.529 32.272 142.873 32.272C144.217 32.272 144.889 31.784 144.889 30.808C144.889 30.456 144.769 30.168 144.529 29.944C144.305 29.72 144.081 29.568 143.857 29.488C143.633 29.408 143.361 29.328 143.041 29.248C142.737 29.168 142.433 29.088 142.129 29.008C141.841 28.928 141.521 28.824 141.169 28.696C140.833 28.552 140.457 28.352 140.041 28.096C139.225 27.568 138.817 26.688 138.817 25.456C138.817 24.208 139.257 23.248 140.137 22.576C141.017 21.904 142.121 21.568 143.449 21.568C144.793 21.568 146.121 21.888 147.433 22.528V25.408L145.273 25.576V24.568C145.273 24.168 145.089 23.896 144.721 23.752Z" fill="black"/>
<defs>
<linearGradient id="paint0_linear_255_63" x1="20" y1="8.5" x2="24.5" y2="36" gradientUnits="userSpaceOnUse">
<stop stop-color="#DB2020"/>
<stop offset="0.055" stop-color="#FFC632"/>
<stop offset="1" stop-color="#E0C015"/>
</linearGradient>
<linearGradient id="paint1_linear_255_63" x1="29.5" y1="45.5" x2="10.5" y2="1.5" gradientUnits="userSpaceOnUse">
<stop stop-color="#1B3F60"/>
<stop offset="1" stop-color="#3982C6"/>
</linearGradient>
</defs>
</svg>
