<svg width="66" height="94" viewBox="0 0 66 94" fill="none" xmlns="http://www.w3.org/2000/svg">
<g id="Group 18">
<path id="Star 1" d="M33.1001 36.7761C33.7032 34.9426 36.2968 34.9426 36.8999 36.7761L42.2765 53.1225C42.4581 53.6747 42.871 54.1206 43.4077 54.344L58.5646 60.6536C60.2064 61.3371 60.2064 63.6629 58.5646 64.3464L43.4077 70.656C42.871 70.8794 42.4581 71.3253 42.2765 71.8775L36.8999 88.2239C36.2968 90.0574 33.7032 90.0574 33.1001 88.2239L27.7235 71.8775C27.5419 71.3253 27.129 70.8794 26.5923 70.656L11.4354 64.3464C9.79359 63.6629 9.79358 61.3371 11.4354 60.6536L26.5923 54.344C27.129 54.1206 27.5419 53.6747 27.7235 53.1225L33.1001 36.7761Z" fill="#FFC632"/>
<path id="Star 2" d="M46.0979 5.85434C46.6966 4.01169 49.3034 4.0117 49.9021 5.85435L52.579 14.0933C52.7585 14.6457 53.1692 15.0928 53.7044 15.3183L61.6267 18.657C63.2578 19.3444 63.2578 21.6556 61.6267 22.343L53.7044 25.6817C53.1692 25.9072 52.7585 26.3543 52.579 26.9067L49.9021 35.1457C49.3034 36.9883 46.6966 36.9883 46.0979 35.1457L43.421 26.9067C43.2415 26.3543 42.8308 25.9072 42.2956 25.6817L34.3733 22.343C32.7422 21.6556 32.7422 19.3444 34.3733 18.657L42.2956 15.3183C42.8308 15.0928 43.2415 14.6457 43.421 14.0933L46.0979 5.85434Z" fill="#FFC632"/>
<path id="Star 3" d="M12.0973 20.8767C12.6947 19.0314 15.3053 19.0315 15.9028 20.8767L17.4996 25.8087C17.6785 26.3611 18.0886 26.8085 18.6234 27.0347L23.6442 29.1579C25.2722 29.8464 25.2722 32.1536 23.6442 32.8421L18.6234 34.9653C18.0886 35.1915 17.6785 35.6389 17.4996 36.1913L15.9027 41.1233C15.3053 42.9686 12.6947 42.9685 12.0972 41.1233L10.5004 36.1913C10.3215 35.6389 9.91141 35.1915 9.37662 34.9653L4.35581 32.8421C2.72781 32.1536 2.72781 29.8464 4.35582 29.1579L9.37662 27.0347C9.91141 26.8085 10.3215 26.3611 10.5004 25.8087L12.0973 20.8767Z" fill="#FFC632"/>
</g>
</svg>
